<svg id="Layer_1" data-name="Layer 1" xmlns="http://www.w3.org/2000/svg" viewBox="0 0 1005.64 286.51"><defs><style>.cls-1{fill:#ff6c00;}.cls-2{fill:#393939;}.cls-3{isolation:isolate;}</style></defs><g id="First_aid_Guru_light_logo" data-name="First aid Guru light logo"><g id="Group_6" data-name="Group 6"><g id="Path_1" data-name="Path 1"><path class="cls-1" d="M-163.15,442.49l-2,0c-76.9-1.08-116.74-61.2-127.07-92.83a19,19,0,0,1,12.2-24,19,19,0,0,1,24,12.12c.93,2.78,23,65.67,91.41,66.64,68.09.9,90.34-63.81,91.26-66.57a19.08,19.08,0,0,1,24-12.15,19,19,0,0,1,12.22,23.91C-47.55,381.89-87.22,442.49-163.15,442.49Z" transform="translate(293.2 -155.98)"/></g><g id="Group_7" data-name="Group 7"><g id="Path_2" data-name="Path 2"><rect class="cls-2" x="61.93" y="60.82" width="133.78" height="38.1"/></g><g id="Path_3" data-name="Path 3"><rect class="cls-2" x="109.77" y="12.98" width="38.1" height="133.78"/></g></g></g><g id="Group_8" data-name="Group 8"><g id="First_Aid" data-name="First Aid" class="cls-3"><g class="cls-3"><path class="cls-2" d="M43.89,163.27h87v25.78H74.47v19.74h55.12v26H74.47v47.12H43.89Z" transform="translate(293.2 -155.98)"/><path class="cls-2" d="M144.71,171.63a15.65,15.65,0,1,1,15.64,15.65A15.56,15.56,0,0,1,144.71,171.63ZM146.66,196H174v85.88H146.66Z" transform="translate(293.2 -155.98)"/><path class="cls-2" d="M194,196h27.38v10.85c5.69-6.94,16.54-13,26.85-13v26.49a22.26,22.26,0,0,0-6.76-.89c-7.11,0-16.53,3-20.09,8v54.41H194Z" transform="translate(293.2 -155.98)"/><path class="cls-2" d="M264.73,252c6.4,5.69,20.09,11.38,30.22,11.38,8.18,0,11.56-2.67,11.56-6.4,0-4.45-5.87-6.05-14.76-7.47-14.58-2.49-35.2-5.51-35.2-27.38,0-15.12,13-28.27,36.8-28.27a60.43,60.43,0,0,1,35.92,11.38l-10.49,18.13c-5.16-5-14.94-9.42-25.25-9.42-6.4,0-10.84,2.13-10.84,5.87,0,3.91,4.62,5.33,13.69,6.93,14.58,2.49,36.27,6.05,36.27,28.81,0,16.36-14.4,28.45-39.12,28.45-15.29,0-31.11-5.16-40.18-13.16Z" transform="translate(293.2 -155.98)"/><path class="cls-2" d="M352.39,258.76V219.82H338.16V196h14.23V172.52h27.2V196H397v23.83H379.59v31.29c0,5,2.85,8.71,7.65,8.71,3,0,6-1.06,6.93-2.13l5.34,20.63c-3.38,3.2-10.14,5.69-20.27,5.69C361.81,284,352.39,275.29,352.39,258.76Z" transform="translate(293.2 -155.98)"/><path class="cls-2" d="M532.86,263.91H483.61l-6.05,18H444.31l44.63-118.6h38.41l44.81,118.6H538.91Zm-41.25-25.78h33.25l-16.71-48.19Z" transform="translate(293.2 -155.98)"/><path class="cls-2" d="M578.2,171.63a15.65,15.65,0,1,1,15.65,15.65A15.57,15.57,0,0,1,578.2,171.63Zm2,24.36h27.38v85.88H580.16Z" transform="translate(293.2 -155.98)"/><path class="cls-2" d="M685.24,271.92c-7.11,8.17-15.82,12.09-25.42,12.09-21.16,0-38.06-16-38.06-45.17,0-28.09,16.54-45,38.06-45a31.89,31.89,0,0,1,25.42,12.26V163.27h27.21v118.6H685.24Zm0-46.24c-3.55-4.62-10.67-7.64-16.53-7.64-10.85,0-18.85,8-18.85,20.8s8,21,18.85,21c5.86,0,13-3.2,16.53-7.82Z" transform="translate(293.2 -155.98)"/></g></g><g id="Guru" class="cls-3"><g class="cls-3"><path class="cls-1" d="M102.74,313.73c23.12,0,38.23,11,47.83,24.71L133.5,348a37.75,37.75,0,0,0-30.76-15.82c-23.47,0-40.89,18-40.89,42.85s17.42,43,40.89,43c12.09,0,22.76-5.69,28.1-10.67V388.94H95.45V370.63h56.19v44.45c-11.73,13-28.27,21.51-48.9,21.51-34.31,0-62.23-24.36-62.23-61.52S68.43,313.73,102.74,313.73Z" transform="translate(293.2 -155.98)"/><path class="cls-1" d="M230.77,422.9a41.16,41.16,0,0,1-30.41,13.52c-18.49,0-27.56-9.61-27.56-27.21V348.4h18.67v54.05c0,13.34,6.76,17.43,17.25,17.43,9.42,0,17.6-5.34,22.05-11.2V348.4h18.67v85.88H230.77Z" transform="translate(293.2 -155.98)"/><path class="cls-1" d="M273.62,348.4h18.67V361c6.4-8.18,16.71-14.58,27.91-14.58v18.5a27.13,27.13,0,0,0-5.86-.54c-7.83,0-18.32,5.34-22,11.38v58.5H273.62Z" transform="translate(293.2 -155.98)"/><path class="cls-1" d="M393.28,422.9a41.13,41.13,0,0,1-30.4,13.52c-18.5,0-27.56-9.61-27.56-27.21V348.4H354v54.05c0,13.34,6.75,17.43,17.24,17.43,9.43,0,17.61-5.34,22-11.2V348.4H412v85.88H393.28Z" transform="translate(293.2 -155.98)"/></g></g></g></g></svg>