<svg xmlns="http://www.w3.org/2000/svg" width="1921.247" height="547.382" viewBox="0 0 1921.247 547.382">
  <g id="First_aid_Guru_light_logo" data-name="First aid Guru light logo" transform="translate(-0.033)">
    <g id="Group_6" data-name="Group 6" transform="translate(0.033 24.798)">
      <g id="Path_1" data-name="Path 1" transform="translate(0 297.553)">
        <path id="Path_24" data-name="Path 24" d="M-44.768,549.735h-3.821c-146.918-2.064-223.034-116.924-242.769-177.353a36.3,36.3,0,0,1,2.131-27.767,36.3,36.3,0,0,1,21.176-18.085,36.3,36.3,0,0,1,27.726,2.073A36.3,36.3,0,0,1-222.2,349.684C-220.42,355-178.255,475.148-47.556,477c130.087,1.72,172.6-121.91,174.353-127.183A36.378,36.378,0,0,1,196,372.286C176.088,433.957,100.3,549.735-44.768,549.735Z" transform="translate(293.167 -324.705)" fill="#ff6c00"/>
      </g>
      <g id="Group_7" data-name="Group 7" transform="translate(118.255)">
        <g id="Path_2" data-name="Path 2" transform="translate(0 91.399)">
          <rect id="Rectangle_302" data-name="Rectangle 302" width="255.589" height="72.791" fill="#f6fcff"/>
        </g>
        <g id="Path_3" data-name="Path 3" transform="translate(91.399)">
          <rect id="Rectangle_303" data-name="Rectangle 303" width="72.791" height="255.589" fill="#f6fcff"/>
        </g>
      </g>
    </g>
    <g id="Group_8" data-name="Group 8" transform="translate(637.528 0)">
      <g id="First_Aid" data-name="First Aid" transform="translate(6.458)" style="isolation: isolate">
        <g id="Group_9955" data-name="Group 9955" transform="translate(0)" style="isolation: isolate">
          <path id="Path_25" data-name="Path 25" d="M43.89,163.27H210.1v49.253H102.314v37.714H207.621V299.91H102.314v90.023H43.89Z" transform="translate(-43.89 -149.342)" fill="#f6fcff"/>
          <path id="Path_26" data-name="Path 26" d="M144.71,185.879a29.727,29.727,0,1,1,8.7,21.186A29.9,29.9,0,0,1,144.71,185.879Zm3.726,46.559h52.234V396.514H148.436Z" transform="translate(47.908 -155.98)" fill="#f6fcff"/>
          <path id="Path_27" data-name="Path 27" d="M194,197.957h52.31v20.729c10.871-13.259,31.6-24.836,51.3-24.836v50.609a42.543,42.543,0,0,0-12.915-1.7c-13.584,0-31.581,5.732-38.382,15.284V361.994H194Z" transform="translate(92.788 -121.499)" fill="#f6fcff"/>
          <path id="Path_28" data-name="Path 28" d="M275.091,304.94c12.228,10.871,38.382,21.742,57.736,21.742,15.628,0,22.086-5.1,22.086-12.227,0-8.5-11.215-11.559-28.2-14.272-27.856-4.757-67.25-10.527-67.25-52.31,0-28.887,24.837-54.01,70.307-54.01A115.452,115.452,0,0,1,398.4,215.6l-20.042,34.637c-9.858-9.552-28.542-18-48.241-18-12.227,0-20.709,4.069-20.709,11.215,0,7.47,8.827,10.183,26.155,13.24,27.855,4.757,69.294,11.559,69.294,55.042,0,31.256-27.511,54.354-74.74,54.354-29.211,0-59.436-9.858-76.764-25.143Z" transform="translate(146.826 -121.493)" fill="#f6fcff"/>
          <path id="Path_29" data-name="Path 29" d="M365.347,337.283v-74.4H338.16V217.379h27.187V172.52h51.966v44.859h33.262v45.528H417.313v59.78c0,9.553,5.445,16.641,14.616,16.641,5.731,0,11.463-2.025,13.24-4.069l10.2,39.414c-6.458,6.114-19.373,10.871-38.726,10.871C383.344,385.5,365.347,368.863,365.347,337.283Z" transform="translate(224.047 -140.92)" fill="#f6fcff"/>
          <path id="Path_30" data-name="Path 30" d="M613.486,355.508H519.393L507.834,389.9H444.31L529.576,163.31h73.382L688.569,389.9H625.044Zm-78.809-49.253H598.2l-31.925-92.067Z" transform="translate(320.698 -149.306)" fill="#f6fcff"/>
          <path id="Path_31" data-name="Path 31" d="M578.2,185.879a29.75,29.75,0,1,1,8.714,21.187A29.9,29.9,0,0,1,578.2,185.879Zm3.823,46.54h52.31V396.495H581.944Z" transform="translate(442.607 -155.98)" fill="#f6fcff"/>
          <path id="Path_32" data-name="Path 32" d="M743.039,370.847c-13.584,15.609-30.225,23.1-48.564,23.1-40.427,0-72.715-30.568-72.715-86.3,0-53.666,31.6-85.973,72.715-85.973A60.927,60.927,0,0,1,743.039,245.1V163.27h51.986V389.857H743.039Zm0-88.342c-6.782-8.827-20.385-14.6-31.58-14.6-20.73,0-36.014,15.284-36.014,39.738s15.284,40.121,36.014,40.121c11.194,0,24.836-6.114,31.58-14.94Z" transform="translate(482.269 -149.342)" fill="#f6fcff"/>
        </g>
      </g>
      <g id="Guru" transform="translate(0 301.384)" style="isolation: isolate">
        <g id="Group_9956" data-name="Group 9956" style="isolation: isolate">
          <path id="Path_33" data-name="Path 33" d="M159.4,313.73c44.171,0,73.039,21.015,91.38,47.208L218.169,379.2A72.122,72.122,0,0,0,159.4,348.979c-44.84,0-78.121,34.389-78.121,81.865S114.562,513,159.4,513c23.1,0,43.483-10.871,53.686-20.385V457.42H145.474V422.438H252.825V507.36c-22.41,24.837-54.01,41.1-93.424,41.1-65.55,0-118.891-46.54-118.891-117.534S93.851,313.73,159.4,313.73Z" transform="translate(-40.51 -313.73)" fill="#ff6c00"/>
          <path id="Path_34" data-name="Path 34" d="M283.552,490.733a78.638,78.638,0,0,1-58.1,25.831c-35.326,0-52.654-18.361-52.654-51.986V348.4h35.669V451.663c0,25.486,12.916,33.3,32.957,33.3,18,0,33.625-10.2,42.127-21.4V348.4h35.67V512.475h-35.67Z" transform="translate(79.942 -282.162)" fill="#ff6c00"/>
          <path id="Path_35" data-name="Path 35" d="M273.62,350.2h35.67v24.072c12.228-15.627,31.925-27.855,53.322-27.855v35.345a51.86,51.86,0,0,0-11.2-1.032c-14.959,0-35,10.2-42.031,21.742V514.239H273.62Z" transform="translate(171.74 -283.965)" fill="#ff6c00"/>
          <path id="Path_36" data-name="Path 36" d="M446.052,490.733a78.577,78.577,0,0,1-58.079,25.831c-35.344,0-52.654-18.361-52.654-51.986V348.4h35.689V451.663c0,25.486-29.019,36.281,32.937,33.3s33.644-10.2,42.031-21.4V348.4h35.842V512.475H446.052Z" transform="translate(227.92 -282.162)" fill="#ff6c00"/>
        </g>
      </g>
    </g>
  </g>
</svg>
