<svg xmlns="http://www.w3.org/2000/svg" width="65.571" height="69.793" viewBox="0 0 65.571 69.793">
  <g id="Guru_icon" data-name="Guru icon" transform="translate(-6960 -18142.207)">
    <path id="Path_66" data-name="Path 66" d="M33.182,220.978c-.173,0-.343,0-.518,0C13.043,220.7,2.876,205.358.241,197.286a4.861,4.861,0,0,1,9.236-3.036c.239.71,5.859,16.757,23.324,17,17.375.231,23.053-16.282,23.287-16.985a4.861,4.861,0,0,1,9.248,3c-2.656,8.247-12.779,23.71-32.154,23.71" transform="translate(6960 17991.021)" fill="#ff6c00"/>
    <rect id="Rectangle_337" data-name="Rectangle 337" width="34.134" height="9.722" transform="translate(6975.803 18154.414)" fill="#393939"/>
    <rect id="Rectangle_338" data-name="Rectangle 338" width="9.722" height="34.134" transform="translate(6988.009 18142.207)" fill="#393939"/>
  </g>
</svg>
