<svg id="NHS-Logo" xmlns="http://www.w3.org/2000/svg" width="130.655" height="52.177" viewBox="0 0 130.655 52.177">
  <rect id="Rectangle_25" data-name="Rectangle 25" width="130.655" height="52.176" transform="translate(0 0)" fill="#005eb8"/>
  <g id="Group_9873" data-name="Group 9873" transform="translate(8.344 5.677)">
    <path id="Path_8" data-name="Path 8" d="M18.857,14.475H31.992l8.052,27.293h.122l5.523-27.293H55.61L47.265,53.831H34.191L25.956,26.6h-.11L20.384,53.831H10.463Z" transform="translate(-10.463 -13.791)" fill="#fff"/>
    <path id="Path_9" data-name="Path 9" d="M144.025,14.475h10.545l-3.1,15.058h12.463l3.1-15.058h10.545L169.4,53.831H158.8l3.495-16.855h-12.4L146.4,53.831H135.863Z" transform="translate(-94.986 -13.791)" fill="#fff"/>
    <path id="Path_10" data-name="Path 10" d="M282.055,21.969a19.765,19.765,0,0,0-8.626-1.809c-4.167,0-7.551.623-7.551,3.777,0,5.586,15.273,3.5,15.273,15.449,0,10.878-10.093,13.7-19.22,13.7a43.976,43.976,0,0,1-12.219-2.029l2.444-8.006c2.089,1.357,6.256,2.261,9.689,2.261s8.394-.623,8.394-4.681c0-6.319-15.273-3.948-15.273-15.058,0-10.144,8.907-13.2,17.534-13.2,4.887,0,9.408.513,12.06,1.748Z" transform="translate(-171.728 -12.375)" fill="#fff"/>
  </g>
</svg>
