<svg id="Stripe__company_-Powered-by-Stripe-Logo.wine" data-name="Stripe_(company)-Powered-by-Stripe-Logo.wine" xmlns="http://www.w3.org/2000/svg" width="93" height="25.591" viewBox="0 0 93 25.591">
  <path id="Path_64" data-name="Path 64" d="M3.745,0h85.51A3.745,3.745,0,0,1,93,3.745v18.1a3.745,3.745,0,0,1-3.745,3.745H3.745A3.745,3.745,0,0,1,0,21.846V3.745A3.745,3.745,0,0,1,3.745,0Z" fill="#32364e" fill-rule="evenodd"/>
  <path id="Path_65" data-name="Path 65" d="M49.445,20.022h-.913l.707-1.745-1.406-3.548H48.8l.884,2.415.891-2.415h.964ZM45.94,18.5a1.532,1.532,0,0,1-.935-.346v.258h-.942V13.117h.942V14.98a1.57,1.57,0,0,1,.935-.339A1.729,1.729,0,0,1,47.6,16.569,1.729,1.729,0,0,1,45.94,18.5Zm-.2-3.048a1.042,1.042,0,0,0-.737.331v1.575a1.042,1.042,0,0,0,.737.331c.53,0,.9-.456.9-1.119s-.368-1.119-.9-1.119Zm-5.493,2.7a1.5,1.5,0,0,1-.935.346,1.733,1.733,0,0,1-1.663-1.929,1.733,1.733,0,0,1,1.663-1.929,1.537,1.537,0,0,1,.935.339V13.117h.95V18.41h-.95Zm0-2.371a1.013,1.013,0,0,0-.729-.331c-.537,0-.905.457-.905,1.119s.368,1.119.905,1.119a1.013,1.013,0,0,0,.729-.331Zm-5.61,1.045a1.052,1.052,0,0,0,1.119.942,2.26,2.26,0,0,0,1.1-.346v.788A3,3,0,0,1,35.6,18.5a1.846,1.846,0,0,1-1.892-1.958,1.793,1.793,0,0,1,1.818-1.9,1.66,1.66,0,0,1,1.62,1.841,2.849,2.849,0,0,1-.015.346Zm.854-1.457a.861.861,0,0,0-.854.846h1.6A.8.8,0,0,0,35.493,15.37Zm-3.335.581V18.41h-.942V14.729h.942V15.1a1.245,1.245,0,0,1,.905-.456,1.115,1.115,0,0,1,.31.037v.839a1.22,1.22,0,0,0-.331-.044A1.161,1.161,0,0,0,32.158,15.951Zm-4.2.876a1.053,1.053,0,0,0,1.119.942,2.262,2.262,0,0,0,1.1-.346v.788a3,3,0,0,1-1.252.287,1.846,1.846,0,0,1-1.892-1.958,1.793,1.793,0,0,1,1.818-1.9,1.659,1.659,0,0,1,1.62,1.841,2.972,2.972,0,0,1-.014.346Zm.854-1.457a.861.861,0,0,0-.854.846h1.605A.8.8,0,0,0,28.808,15.37Zm-4.145,3.04-.751-2.5-.743,2.5h-.847l-1.266-3.681H22l.744,2.5.743-2.5h.854l.743,2.5.744-2.5h.942L25.509,18.41Zm-5.757.088a1.84,1.84,0,0,1-1.9-1.929,1.9,1.9,0,1,1,3.791,0A1.834,1.834,0,0,1,18.905,18.5Zm0-3.07c-.552,0-.935.464-.935,1.141s.383,1.141.935,1.141.928-.464.928-1.141S19.45,15.428,18.905,15.428Zm-4.138,1.163h-.847V18.41h-.942V13.345h1.789a1.629,1.629,0,1,1,0,3.247Zm-.133-2.481h-.714v1.715h.714a.86.86,0,1,0,0-1.715ZM90.28,17.053H85.755c.1,1.084.9,1.4,1.8,1.4a4.883,4.883,0,0,0,2.271-.511v1.862a5.188,5.188,0,0,1-2.563.6c-2.251,0-3.829-1.41-3.829-4.2,0-2.354,1.338-4.224,3.538-4.224s3.342,1.869,3.342,4.237c0,.223-.021.708-.031.833Zm-3.326-3.184c-.578,0-1.22.436-1.22,1.478h2.39C88.124,14.306,87.523,13.869,86.955,13.869Zm-7.189,6.537a2.591,2.591,0,0,1-1.635-.585l0,2.616-2.311.492V12.138h2.036l.12.571a2.588,2.588,0,0,1,1.811-.725c1.623,0,3.153,1.462,3.153,4.154C82.932,19.075,81.42,20.406,79.765,20.406Zm-.538-6.375a1.4,1.4,0,0,0-1.1.458l.014,3.435a1.382,1.382,0,0,0,1.09.439c.854,0,1.427-.931,1.427-2.175,0-1.21-.582-2.157-1.427-2.157Zm-6.68-1.894h2.321v8.1H72.548Zm0-2.587,2.321-.494V10.94l-2.321.493Zm-2.4,5.2v5.493H67.84v-8.1h2l.145.683a1.577,1.577,0,0,1,1.929-.683v2.125a1.642,1.642,0,0,0-1.763.484ZM65.271,17.4c0,1.363,1.459.939,1.755.82V20.1a3.572,3.572,0,0,1-1.623.306A2.329,2.329,0,0,1,63,18.027l.01-7.417,2.257-.479,0,2.007h1.756v1.971H65.271Zm-2.8.394c0,1.664-1.324,2.614-3.247,2.614a6.409,6.409,0,0,1-2.528-.525V17.674a5.826,5.826,0,0,0,2.53.738c.516,0,.887-.139.887-.565,0-1.1-3.515-.688-3.515-3.248,0-1.637,1.25-2.616,3.125-2.616a6.115,6.115,0,0,1,2.3.423v2.177a5.182,5.182,0,0,0-2.3-.595c-.484,0-.785.14-.785.5C58.932,15.53,62.466,15.036,62.466,17.792Z" transform="translate(-4.878 -3.404)" fill="#fff" fill-rule="evenodd"/>
</svg>
